<svg width="30" height="30" viewBox="0 0 30 30" fill="none" xmlns="http://www.w3.org/2000/svg">
<g clip-path="url(#clip0_11963_3871)">
<path d="M24 0C27.3137 0 30 2.68629 30 6C30 11.9995 30 17.9989 30.0001 23.9984C30.0001 27.3121 27.3138 29.9985 24.0001 29.9985H6.00046C2.68698 29.9985 0.000767389 27.3126 0.000562366 23.9991C0.000191132 17.9993 0.000100763 11.9996 0.000164845 5.99985C0.000200237 2.6862 2.68647 0 6.00012 0H24Z" fill="url(#paint0_linear_11963_3871)"/>
<path d="M17.3056 17.3076C17.5334 17.0798 17.9027 17.0798 18.1305 17.3076L20.6621 19.8391C20.8899 20.067 20.8899 20.4362 20.6621 20.664C20.4343 20.8918 20.065 20.8918 19.8372 20.664L17.3056 18.1324C17.0778 17.9046 17.0778 17.5354 17.3056 17.3076Z" fill="white"/>
<path d="M18.4993 14.418C18.4993 12.1628 16.6712 10.3346 14.416 10.3346C12.1609 10.3346 10.3327 12.1628 10.3327 14.418C10.3327 16.6731 12.1609 18.5013 14.416 18.5013C16.6712 18.5013 18.4993 16.6731 18.4993 14.418ZM19.666 14.418C19.666 17.3175 17.3155 19.668 14.416 19.668C11.5165 19.668 9.16602 17.3175 9.16602 14.418C9.16602 11.5185 11.5165 9.16797 14.416 9.16797C17.3155 9.16797 19.666 11.5185 19.666 14.418Z" fill="white"/>
</g>
<defs>
<linearGradient id="paint0_linear_11963_3871" x1="30.75" y1="21.75" x2="8.99999" y2="-12" gradientUnits="userSpaceOnUse">
<stop stop-color="#1F6298"/>
<stop offset="1" stop-color="#151C33"/>
</linearGradient>
<clipPath id="clip0_11963_3871">
<rect width="30.0002" height="29.9985" fill="white"/>
</clipPath>
</defs>
</svg>
